# AST/ASF file generated using VICON BodyLanguage
# -----------------------------------------------
:version 1.10
:name VICON
:units
  mass 1.0
  length 0.45
  angle deg
:documentation
   .ast/.asf automatically generated from VICON data using
   VICON BodyBuilder and BodyLanguage model FoxedUp or BRILLIANT.MOD
:root
   order TX TY TZ RX RY RZ
   axis XYZ
   position 0 0 0  
   orientation 0 0 0 
:bonedata
  begin
     id 1 
     name lhipjoint
     direction 0.78388 -0.462562 0.414208 
     length 3.01181 
     axis 0 0 0  XYZ
  end
  begin
     id 2 
     name lfemur
     direction 0.34202 -0.939693 0  
     length 6.04673  
     axis 0 0 20  XYZ
    dof rx ry rz
    limits (-160.0 20.0)
           (-70.0 70.0)
           (-60.0 70.0)
  end
  begin
     id 3 
     name ltibia
     direction 0.34202 -0.939693 0   
     length 7.211   
     axis 0 0 20   XYZ
    dof rx
    limits (-10.0 170.0)
  end
  begin
     id 4 
     name lfoot
     direction 0.121887 -0.334882 0.934344   
     length 2.13567   
     axis -90 7.62852e-016 20   XYZ
    dof rx rz
    limits (-45.0 90.0)
           (-70.0 20.0)
  end
  begin
     id 5 
     name ltoes
     direction 1.53555e-011 -4.2179e-011 1   
     length 1.05957   
     axis -90 7.62852e-016 20   XYZ
    dof rx
    limits (-90.0 20.0)
  end
  begin
     id 6 
     name rhipjoint
     direction -0.769387 -0.475875 0.426129   
     length 2.92756  
     axis 0 0 0  XYZ 
  end
  begin
     id 7 
     name rfemur
     direction -0.34202 -0.939693 0   
     length 6.35468   
     axis 0 0 -20   XYZ
    dof rx ry rz
    limits (-160.0 20.0)
           (-70.0 70.0)
           (-70.0 60.0)
  end
  begin
     id 8 
     name rtibia
     direction -0.34202 -0.939693 0   
     length 7.37886   
     axis 0 0 -20   XYZ
    dof rx
    limits (-10.0 170.0)
 end
 begin
     id 9 
     name rfoot
     direction -0.101763 -0.279592 0.954711   
     length 2.21478  
     axis -90 -7.62852e-016 -20   XYZ
    dof rx rz
    limits (-45.0 90.0)
           (-20.0 70.0)
  end
  begin
     id 10 
     name rtoes
     direction -1.53494e-011 -4.21851e-011 1   
     length 1.10506   
     axis -90 -7.62852e-016 -20   XYZ
    dof rx
    limits (-90.0 20.0)
  end
  begin
     id 11 
     name lowerback
     direction 0.00747405 0.999267 0.0375481   
     length 2.13259   
     axis 0 0 0   XYZ
    dof rx ry rz
    limits (-20.0 45.0)
           (-30.0 30.0)
           (-30.0 30.0)
  end
  begin
     id 12 
     name upperback
     direction 0.00661626 0.996177 0.0871029   
     length 2.10528   
     axis 0 0 0   XYZ
    dof rx ry rz
    limits (-20.0 45.0)
           (-30.0 30.0)
           (-30.0 30.0)
  end
  begin
     id 13 
     name thorax
     direction 0.00320659 0.997679 0.0680167   
     length 2.11338   
     axis 0 0 0   XYZ
    dof rx ry rz
    limits (-20.0 45.0)
           (-30.0 30.0)
           (-30.0 30.0)
  end
  begin
     id 14 
     name lowerneck
     direction 0.0374841 0.973033 0.227602   
     length 1.42765   
     axis 0 0 0   XYZ
    dof rx ry rz
    limits (-20.0 45.0)
           (-30.0 30.0)
           (-30.0 30.0)
  end
  begin
     id 15 
     name upperneck
     direction 0.00481585 0.989155 -0.146795   
     length 1.47593   
     axis 0 0 0   XYZ
    dof rx ry rz
    limits (-20.0 45.0)
           (-30.0 30.0)
           (-30.0 30.0)
  end
  begin
     id 16
     name head
     direction -0.00292522 0.997206 -0.0746423  
     length 1.48116  
     axis 0 0 0   XYZ
    dof rx ry rz
    limits (-20.0 45.0)
           (-30.0 30.0)
           (-30.0 30.0)
  end
  begin
     id 17 
     name lclavicle
     direction 0.951444 0.305606 0.0368784  
     length 3.01855  
     axis 0 0 0   XYZ
    dof ry rz
    limits (-20.0 10.0)
           (0.0 20.0)
  end
  begin
     id 18 
     name lhumerus
     direction 1 -4.48977e-011 2.61664e-027   
     length 5.52731   
     axis 180 -30 -90   XYZ
    dof rx ry rz
    limits (-60.0 90.0)
           (-90.0 90.0)
           (-90.0 90.0)
  end
  begin
     id 19
     name lradius
     direction 1 -4.48944e-011 8.22157e-027   
     length 3.11059   
     axis 180 -30 -90   XYZ
    dof rx
    limits (-10.0 170.0)
  end
  begin
     id 20
     name lwrist
     direction 1 -4.48976e-011 1.5779e-026   
     length 1.5553   
     axis -1.15221e-014 90 90   XYZ
    dof ry
    limits (-180.0 0.0)
 end
  begin
     id 21 
     name lhand
     direction 1 -4.49025e-011 3.1558e-026   
     length 0.419626   
     axis -2.01367e-014 90 90   XYZ
    dof rx rz
    limits (-90.0 90.0)
           (-45.0 45.0)
  end
  begin
     id 22 
     name lfingers
     direction 1 -4.4904e-011 6.31161e-026   
     length 0.338313   
     axis -4.02734e-014 90 90   XYZ
    dof rx
    limits (0.0 90.0)
  end
  begin
     id 23
     name lthumb
     direction 0.707107 -6.35004e-011 0.707107   
     length 0.485752   
     axis -90 45 2.85299e-015   XYZ
    dof rx rz
    limits (-45.0 45.0)
           (-45.0 45.0)
  end
  begin
     id 24 
     name rclavicle
     direction -0.968876 0.223791 0.105816   
     length 3.04177  
     axis 0 0 0   XYZ 
    dof ry rz
    limits (-10.0 20.0)
           (-20.0 0.0)
  end
  begin
     id 25 
     name rhumerus
     direction -1 -4.48962e-011 -1.01384e-027  
     length 5.25396   
     axis 180 30 90   XYZ
    dof rx ry rz
    limits (-90.0 60.0)
           (-90.0 90.0)
           (-90.0 90.0)
  end
  begin
     id 26 
     name rradius
     direction -1 -4.48955e-011 8.88542e-027   
     length 3.10567   
     axis 180 30 90   XYZ
    dof rx
    limits (-10.0 170.0)
  end
  begin
     id 27 
     name rwrist
     direction -1 -4.48994e-011 1.5779e-026   
     length 1.55283   
     axis -1.15221e-014 -90 -90   XYZ
    dof ry
    limits (-180.0 0.0)
  end
  begin
     id 28
     name rhand
     direction -1 -4.48891e-011 3.1558e-026   
     length 0.498676   
     axis -2.01367e-014 -90 -90   XYZ
    dof rx rz
    limits (-90.0 90.0)
           (-45.0 45.0)
  end
  begin
     id 29
     name rfingers
     direction -1 -4.48972e-011 6.31161e-026   
     length 0.402045   
     axis -4.02734e-014 -90 -90   XYZ
    dof rx
    limits (0.0 90.0)
  end
  begin
     id 30
     name rthumb
     direction -0.707107 -6.34849e-011 0.707107   
     length 0.577259   
     axis -90 -45 -2.85299e-015   XYZ
    dof rx rz
    limits (-45.0 45.0)
           (-45.0 45.0)
  end
:hierarchy
  begin
    root lhipjoint rhipjoint lowerback
    lhipjoint lfemur
    lfemur ltibia
    ltibia lfoot
    lfoot ltoes
    rhipjoint rfemur
    rfemur rtibia
    rtibia rfoot
    rfoot rtoes
    lowerback upperback
    upperback thorax
    thorax lowerneck lclavicle rclavicle
    lowerneck upperneck
    upperneck head
    lclavicle lhumerus
    lhumerus lradius
    lradius lwrist
    lwrist lhand lthumb
    lhand lfingers
    rclavicle rhumerus
    rhumerus rradius
    rradius rwrist
    rwrist rhand rthumb
    rhand rfingers
  end

#!OML:ASF H:\Pregnant\Project 1\Capture day 1\Session 1\femalepreg.ASF
:FULLY-SPECIFIED
:DEGREES
157
root -0.365194 16.0558 3.11491 18.0747 -1.16281 -1.08957
lowerback -10.7385 -2.09031 -10.495
upperback -5.4468 -1.73956 -3.14646
thorax 0.474371 -0.717601 2.39541
lowerneck -19.8054 -2.32909 1.42054
upperneck 19.6786 -5.98258 9.50999
head 9.83762 -1.56064 2.24228
rclavicle 1.11319e-014 5.725e-014
rhumerus -53.4589 0.825136 -85.8777
rradius 32.1971
rwrist -16.0376
rhand -11.6151 -21.2097
rfingers 7.12502
rthumb 14.4279 -50.6882
lclavicle 1.11319e-014 5.725e-014
lhumerus -25.5983 -14.5666 78.2644
lradius 38.4206
lwrist 46.9716
lhand -24.668 -7.91159
lfingers 7.12502
lthumb 1.83217 22.0603
rfemur -42.7844 10.9692 18.1319
rtibia 61.4696
rfoot -11.379 -5.19327
rtoes -13.1615
lfemur -32.6437 -7.77815 -19.8183
ltibia 24.7658
lfoot -8.7964 -2.6984
ltoes -18.0539
158
root -0.371512 16.0505 3.05033 18.035 -1.28485 -1.02189
lowerback -10.8307 -1.9301 -10.4685
upperback -5.46719 -1.517 -3.31212
thorax 0.472286 -0.608635 2.23172
lowerneck -19.821 -2.44292 1.35238
upperneck 19.7869 -6.1583 9.60939
head 9.89396 -1.63005 2.26446
rclavicle -2.27608e-014 -3.97569e-014
rhumerus -53.2925 1.10443 -86.2732
rradius 32.4113
rwrist -16.0071
rhand -12.0952 -21.114
rfingers 7.12502
rthumb 13.9653 -50.625
lclavicle -2.27608e-014 -3.97569e-014
lhumerus -25.8058 -14.4742 78.0976
lradius 37.6328
lwrist 46.8575
lhand -24.5512 -7.66909
lfingers 7.12502
lthumb 1.94504 22.3018
rfemur -42.119 10.9534 18.2542
rtibia 61.928
rfoot -11.6039 -4.87773
rtoes -13.2844
lfemur -32.8678 -7.75262 -19.835
ltibia 24.7851
lfoot -8.58886 -2.69568
ltoes -18.0179
159
root -0.378427 16.0455 2.98564 18 -1.40033 -0.960317
lowerback -10.924 -1.76254 -10.4189
upperback -5.4975 -1.28773 -3.47806
thorax 0.460766 -0.496124 2.05601
lowerneck -19.869 -2.55429 1.23326
upperneck 19.9289 -6.33673 9.77327
head 9.97332 -1.69441 2.31778
rclavicle 3.15074e-014 1.59028e-015
rhumerus -53.1154 1.38151 -86.6647
rradius 32.6126
rwrist -15.9405
rhand -12.5371 -20.9718
rfingers 7.12502
rthumb 13.5394 -50.5116
lclavicle 3.15074e-014 1.59028e-015
lhumerus -26.0198 -14.3699 77.9241
lradius 36.7856
lwrist 46.6776
lhand -24.472 -7.42473
lfingers 7.12502
lthumb 2.02154 22.5454
rfemur -41.4191 10.9496 18.3716
rtibia 62.287
rfoot -11.8152 -4.57872
rtoes -13.3711
lfemur -33.0974 -7.72849 -19.8402
ltibia 24.8008
lfoot -8.37416 -2.69702
ltoes -17.9808
160
root -0.386042 16.0404 2.92089 17.9674 -1.50816 -0.902578
lowerback -11.0167 -1.58865 -10.3487
upperback -5.53573 -1.05294 -3.64476
thorax 0.441563 -0.380777 1.86903
lowerneck -19.8814 -2.66906 1.13343
upperneck 20.0564 -6.51588 9.90871
head 10.0398 -1.76255 2.35767
rclavicle 2.55935e-014 -3.49861e-014
rhumerus -52.9292 1.64908 -87.0481
rradius 32.8127
rwrist -15.8343
rhand -12.9284 -20.8337
rfingers 7.12502
rthumb 13.1622 -50.3983
lclavicle 2.55935e-014 -3.49861e-014
lhumerus -26.2439 -14.2432 77.7392
lradius 35.891
lwrist 46.4313
lhand -24.4168 -7.25713
lfingers 7.12502
lthumb 2.07486 22.7125
rfemur -40.6835 10.9594 18.4839
rtibia 62.5429
rfoot -12.0021 -4.30237
rtoes -13.4551
lfemur -33.3306 -7.70447 -19.837
ltibia 24.8136
lfoot -8.15585 -2.70395
ltoes -17.9402
161
root -0.394069 16.0353 2.85592 17.9388 -1.61416 -0.84833
lowerback -11.1159 -1.41061 -10.2581
upperback -5.57415 -0.813961 -3.8067
thorax 0.427181 -0.263943 1.6763
lowerneck -19.9207 -2.77775 1.03821
upperneck 20.196 -6.68639 10.0258
head 10.1147 -1.8269 2.39162
rclavicle 1.5207e-014 1.59028e-015
rhumerus -52.7172 1.928 -87.4198
rradius 33.0179
rwrist -15.7064
rhand -13.2617 -20.7336
rfingers 7.12502
rthumb 12.8409 -50.3187
lclavicle 1.5207e-014 1.59028e-015
lhumerus -26.4562 -14.0723 77.5429
lradius 34.9434
lwrist 46.1254
lhand -24.3914 -7.17272
lfingers 7.12502
lthumb 2.09933 22.7967
rfemur -39.9181 10.9837 18.5885
rtibia 62.6931
rfoot -12.1562 -4.04405
rtoes -13.5211
lfemur -33.568 -7.68043 -19.8265
ltibia 24.8243
lfoot -7.93527 -2.7102
ltoes -17.8997
162
root -0.402615 16.0301 2.79071 17.9141 -1.71877 -0.794352
lowerback -11.2193 -1.22737 -10.1518
upperback -5.61729 -0.569655 -3.96736
thorax 0.41167 -0.144633 1.47701
lowerneck -19.9504 -2.88922 0.923688
upperneck 20.3349 -6.85971 10.1627
head 10.1899 -1.89192 2.43537
rclavicle -3.47873e-016 -1.43125e-014
rhumerus -52.4888 2.20713 -87.7765
rradius 33.2247
rwrist -15.5615
rhand -13.5253 -20.6826
rfingers 7.12502
rthumb 12.5868 -50.2834
lclavicle -3.47873e-016 -1.43125e-014
lhumerus -26.6637 -13.8594 77.3312
lradius 33.9507
lwrist 45.7593
lhand -24.418 -7.1349
lfingers 7.12502
lthumb 2.07363 22.8348
rfemur -39.1229 11.0214 18.6837
rtibia 62.7346
rfoot -12.2577 -3.80162
rtoes -13.527
lfemur -33.8097 -7.65196 -19.8135
ltibia 24.8328
lfoot -7.71492 -2.71824
ltoes -17.8588
163
root -0.411527 16.0244 2.72525 17.8911 -1.82575 -0.740745
lowerback -11.3263 -1.04192 -10.0315
upperback -5.65864 -0.323457 -4.12005
thorax 0.402149 -0.0249058 1.27874
lowerneck -19.9637 -3.00031 0.855185
upperneck 20.4541 -7.02564 10.2273
head 10.2501 -1.95977 2.44659
rclavicle 8.00108e-015 7.31528e-014
rhumerus -52.2305 2.50757 -88.1146
rradius 33.4289
rwrist -15.4151
rhand -13.7585 -20.646
rfingers 7.12502
rthumb 12.362 -50.2605
lclavicle 8.00108e-015 7.31528e-014
lhumerus -26.8597 -13.5794 77.1031
lradius 32.9228
lwrist 45.3352
lhand -24.4787 -7.13417
lfingers 7.12502
lthumb 2.01501 22.8361
rfemur -38.2978 11.0751 18.7686
rtibia 62.6638
rfoot -12.2945 -3.57601
rtoes -13.4584
lfemur -34.0524 -7.61774 -19.7989
ltibia 24.8392
lfoot -7.49642 -2.72574
ltoes -17.8307
164
root -0.42077 16.0187 2.66005 17.8694 -1.93867 -0.685643
lowerback -11.4445 -0.854371 -9.90219
upperback -5.69857 -0.0740448 -4.26326
thorax 0.402305 0.0959006 1.08595
lowerneck -20.0205 -3.10211 0.786432
upperneck 20.5959 -7.18037 10.2805
head 10.3258 -2.02118 2.45544
rclavicle 1.51076e-014 2.70347e-014
rhumerus -51.9433 2.83152 -88.4302
rradius 33.6194
rwrist -15.268
rhand -13.9395 -20.6031
rfingers 7.12502
rthumb 12.1874 -50.2281
lclavicle 1.51076e-014 2.70347e-014
lhumerus -27.0514 -13.2237 76.8587
lradius 31.8697
lwrist 44.854
lhand -24.583 -7.10464
lfingers 7.12502
lthumb 1.91428 22.8665
rfemur -37.4394 11.1453 18.8405
rtibia 62.4748
rfoot -12.2607 -3.37274
rtoes -13.3186
lfemur -34.2915 -7.57142 -19.7881
ltibia 24.8425
lfoot -7.2799 -2.73791
ltoes -17.7976
165
root -0.430439 16.0129 2.59484 17.8492 -2.05584 -0.626823
lowerback -11.5682 -0.664425 -9.76355
upperback -5.73869 0.178012 -4.40107
thorax 0.407357 0.217697 0.894295
lowerneck -20.1145 -3.19329 0.74825
upperneck 20.7543 -7.32187 10.2887
head 10.4108 -2.07723 2.445
rclavicle -8.74653e-015 2.22639e-014
rhumerus -51.6265 3.17099 -88.7262
rradius 33.7917
rwrist -15.1216
rhand -14.0693 -20.5483
rfingers 7.12502
rthumb 12.0623 -50.1807
lclavicle -8.74653e-015 2.22639e-014
lhumerus -27.2473 -12.7969 76.5898
lradius 30.8092
lwrist 44.3227
lhand -24.7274 -7.00957
lfingers 7.12502
lthumb 1.77486 22.9628
rfemur -36.553 11.2291 18.8967
rtibia 62.1649
rfoot -12.1416 -3.18665
rtoes -13.0775
lfemur -34.5289 -7.51223 -19.7832
ltibia 24.8415
lfoot -7.06332 -2.75803
ltoes -17.7655
166
root -0.440495 16.0068 2.5296 17.8288 -2.17652 -0.562317
lowerback -11.6921 -0.474235 -9.62042
upperback -5.78185 0.429272 -4.52951
thorax 0.411632 0.33921 0.71024
lowerneck -20.2326 -3.27315 0.707634
upperneck 20.9275 -7.44443 10.2773
head 10.504 -2.12548 2.43072
rclavicle -2.75814e-014 2.22639e-014
rhumerus -51.2818 3.53579 -89.0006
rradius 33.9386
rwrist -14.9708
rhand -14.1556 -20.4373
rfingers 7.12502
rthumb 11.9791 -50.0745
lclavicle -2.75814e-014 2.22639e-014
lhumerus -27.4617 -12.2925 76.2995
lradius 29.7575
lwrist 43.7498
lhand -24.8984 -6.85914
lfingers 7.12502
lthumb 1.60969 23.1145
rfemur -35.639 11.3251 18.9345
rtibia 61.7322
rfoot -11.9353 -3.02981
rtoes -12.7867
lfemur -34.7617 -7.4421 -19.7866
ltibia 24.8345
lfoot -6.84475 -2.78603
ltoes -17.7332
167
root -0.450925 16.0006 2.46387 17.8099 -2.29433 -0.492838
lowerback -11.8107 -0.283473 -9.46781
upperback -5.83031 0.678745 -4.65202
thorax 0.4099 0.460056 0.527268
lowerneck -20.365 -3.34356 0.664161
upperneck 21.1101 -7.55165 10.2555
head 10.6023 -2.16718 2.41538
rclavicle -1.44119e-015 3.33958e-014
rhumerus -50.9131 3.9179 -89.2578
rradius 34.0724
rwrist -14.8144
rhand -14.1959 -20.3274
rfingers 7.12502
rthumb 11.9402 -49.9669
lclavicle -1.44119e-015 3.33958e-014
lhumerus -27.6971 -11.7249 75.9838
lradius 28.7273
lwrist 43.1518
lhand -25.1185 -6.63618
lfingers 7.12502
lthumb 1.39709 23.339
rfemur -34.7043 11.4276 18.9547
rtibia 61.1761
rfoot -11.6293 -2.89601
rtoes -12.4076
lfemur -34.9961 -7.36788 -19.7944
ltibia 24.8223
lfoot -6.61946 -2.82227
ltoes -17.6984
168
root -0.461777 15.9941 2.39745 17.7923 -2.40909 -0.415459
lowerback -11.9216 -0.093391 -9.30765
upperback -5.88364 0.924721 -4.76993
thorax 0.401423 0.579394 0.344775
lowerneck -20.4532 -3.41294 0.612146
upperneck 21.2691 -7.64682 10.2228
head 10.6827 -2.20802 2.39918
rclavicle -5.46658e-015 -3.49861e-014
rhumerus -50.5176 4.30882 -89.4936
rradius 34.195
rwrist -14.6437
rhand -14.1798 -20.2417
rfingers 7.12502
rthumb 11.9557 -49.8803
lclavicle -5.46658e-015 -3.49861e-014
lhumerus -27.9596 -11.0913 75.6369
lradius 27.735
lwrist 42.5297
lhand -25.3807 -6.3916
lfingers 7.12502
lthumb 1.14388 23.5851
rfemur -33.7528 11.5361 18.9542
rtibia 60.4962
rfoot -11.2144 -2.78649
rtoes -11.9986
lfemur -35.2352 -7.29378 -19.8084
ltibia 24.8072
lfoot -6.38723 -2.86343
ltoes -17.6645
